<svg id="Layer_1" data-name="Layer 1" xmlns="http://www.w3.org/2000/svg" viewBox="0 0 200 200"><title>3D Boots and Shoes Icons - Scene 5</title><path d="M59.25,117.18s-14.41,8.72-4.15,12.73,17.13,5.94,26.08,3.68a31.63,31.63,0,0,0,23,14.26c44.4,5.16,44.4-4.4,44.4-4.4l-44.4-29Z" fill="#0D0C22"/><path d="M55.1,63.39V85.94s-4.83,13.65,0,23.46,26.08,17.5,26.08,17.5L107.55,143s13.21,2.92,23.61,2.72a72.79,72.79,0,0,0,17.4-2.26s.92-11.14-8.3-18.61-33.59-27.13-36.19-34.58l.09-17.88L55.1,59.53Z" fill="#f5f5f5"/><path d="M57.63,51.72c-6.9,2.15-8.52,17.47,12.08,22.65s38.06,3.75,36.23-4.6S74.6,46.45,57.63,51.72Z" fill="#28253f"/><path d="M104.16,72.38s-.45,13.23,0,19.38c0,0,10.92,13.83,24.75,24s19.65,15.29,19.65,27.67c-3.58,4.17-28.68,1.5-37.61.4a14,14,0,0,1-5.77-2c-6.72-4.21-24.57-15.37-31.59-19.46-8.74-5.1-26.79-9.47-18.49-36.4V59.53Z" fill="none" stroke="#28253f" stroke-miterlimit="10" stroke-width="2.82"/><path d="M52.6,104.46l1.68,15.39a5.52,5.52,0,0,0,3.31,4.49l11,4.69a10.81,10.81,0,0,0,7.91.25l4.72-1.69s-6.93-4.28-17.32-10C52,111,52.6,104.46,52.6,104.46Z" fill="#28253f"/><path d="M63.4,79.48V89.85s4.44,7.05,17.78,6.23V85.76Z" fill="none" stroke="#28253f" stroke-linecap="round" stroke-linejoin="round" stroke-width="2.82"/><path d="M81.18,88.76S93.8,91.29,104,87.3l.18,5.9s-5.2,5.19-23,1.64Z" fill="#28253f"/><path d="M63.4,83l-8.3-3.55v6.46s2.56,2.55,8.3,3.91Z" fill="#28253f"/></svg>