<svg id="Layer_1" data-name="Layer 1" xmlns="http://www.w3.org/2000/svg" viewBox="0 0 200 200"><title>3D Boots and Shoes Icons - Scene 1</title><path d="M152.64,127.2s-8.81,21.18-42.11,11.12S68.15,107.61,58,105.54,46,76.06,46,76.06s5.3,10.42,8.34,14.14,25,19.63,32.7,25.48,25.56,17.47,46.72,15.93S152.64,127.2,152.64,127.2Z" fill="#0D0C22"/><path d="M49.83,64.08c2.63-3.82,5-6.13,11.16-4.66S79.75,70.94,90.26,77.08s29.16,17.14,40.59,21.64S153.2,116,153.44,120.93s1.55,6.7-5.44,8.25-24.94,8.1-47.33-3-46.33-36-46.33-36S41.76,75.78,49.83,64.08Z" fill="#f5f5f5"/><path d="M50.73,62.41c5.8-9.94,26.93,7.28,43,16.75s34.94,18.19,44.4,23.29,19.66,21.11,14.56,24.75-30.57,8-47.31,0-34.94-25.58-42.22-31S40.54,79.88,50.73,62.41Z" fill="none" stroke="#28253f" stroke-miterlimit="10" stroke-width="2.82"/><path d="M67.47,69.69c-8.73-5.09-12.37-8-13.1,0S64.56,85,79.12,95.57,109,117,122.8,115.55s8.73-10.92,8.73-10.92S112,96.42,100.67,90.2,67.47,69.69,67.47,69.69Z" fill="#28253f"/><path d="M152.64,127.2S148.09,135,127.89,135s-32.21-8.18-42.58-16.37S59.65,97.9,59.65,97.9h0C51.19,98.17,47.33,87,46,76.06h0s4.51,10.38,12.49,16.6,23,20.55,34.9,27.55,27.24,15.19,43.24,11.09Z" fill="#28253f"/></svg>