<svg id="Layer_1" data-name="Layer 1" xmlns="http://www.w3.org/2000/svg" viewBox="0 0 200 200"><title>3D Boots and Shoes Icons - Scene 9</title><path d="M58.31,108.9s-6.7,6.44-1.54,8.29,8.52,4.31,13.16,1,12.39,1.85,17.81,6.49,16.77,13.16,34.84,11.36,23-11.62,23-11.62-39-2.4-51.37-6.23S78.45,114.87,73,110.74,58.31,108.9,58.31,108.9Z" fill="#0D0C22"/><path d="M60.38,65s-5.61-.74-5.63,3.9,1.87,43.48,1.87,43.48l7.1,2.46L71,82.51S81.2,91.74,84.19,99.58s3.61,23.92,16.48,28.25,27.9,5.35,35,1.87,10.66-5.54,9.75-9.42-3.85-2.07-9.6-4-3.45-4.79-3.57-6.58,1.19-6-9.66-8.29a6.1,6.1,0,0,0-5.64.25c-3.23,1.66-6.16,3.23-6.16,3.23L88.26,89.06Z" fill="#f5f5f5"/><path d="M64.81,65.46c-7.37-1.37-13.92.54-7.37,5.18s21,17.75,26.75,28.94S88,125,104.39,129.06s35.76,2.46,39.85-4.64-3.18-5.7-10.83-9c-8.64-3.78-11-6.23-11-6.23" fill="none" stroke="#28253f" stroke-linecap="round" stroke-linejoin="round" stroke-width="2.82"/><polyline points="54.44 67.65 56.62 112.41 63.72 114.86 63.17 75.2" fill="none" stroke="#28253f" stroke-linecap="round" stroke-linejoin="round" stroke-width="2.82"/><path d="M110.2,130.25s1.37-14.2,11.23-20.48c8-5.1,9.7-.39,9.81,4" fill="none" stroke="#28253f" stroke-linecap="round" stroke-linejoin="round" stroke-width="2.82"/><path d="M110.79,126.89s4.15,1.51,17.8.7,13.83-6.85,9.65-9.06-9.83-4.76-14.61-10C123.63,108.54,114.62,112,110.79,126.89Z" fill="#28253f"/><path d="M100.73,123.05s-4-1.18-9.62-16.24-16-28.71-26-34.53-6.95-8.48-3.27-8.55a25.37,25.37,0,0,1,19.65,9.1c7.46,8.55,17.29,19.29,23.39,24.25l8,8.23S100.71,112,100.73,123.05Z" fill="#28253f"/><path d="M63.2,77.74v38.4s1.52,1.27,6.61-3.82L71,82.51l-6.33-6S63,74.83,63.2,77.74Z" fill="#28253f"/><path d="M131.39,112.68s4.12-7.46-5.68-10.34c-7.07-2.08-5.74-2.32-13.84,2s-10.21,8.38-10.21,8.38" fill="none" stroke="#28253f" stroke-linecap="round" stroke-linejoin="round" stroke-width="2.82"/></svg>