<svg id="Layer_1" data-name="Layer 1" xmlns="http://www.w3.org/2000/svg" viewBox="0 0 200 200"><title>3D Boots and Shoes Icons - Scene 15</title><path d="M63.15,155.7s-11,8-4.73,12.12a20,20,0,0,0,18.1,1.94c4.26-1.55,6.19.39,13.55,7s45.63,13.93,56.3,0c1.86-2.43-3.9-2.46-5.4-3.87-7.11-6.71-39.75-5.4-47.42-6.63-9.29-1.5-9-8.35-19.67-9.44Z" fill="#0D0C22"/><path d="M55.19,26.69s3.18,8,6.06,25,7.27,32.12,2.94,44-9,20.79-5.77,30.92l2.36,33.48,8.49,3.64,8.58-21.31s5.93,7.94,10.88,15.84,8.79,11.92,22.35,17.15,40,6.49,34.89-1.51-16.11-14.14-27.1-30.37-20-24.94-15.24-49.65,12.2-54.44,12.2-54.44Z" fill="#f5f5f5"/><path d="M59.43,16.66c-8.28,2.5-12.11,13.9,14.32,25.8,23.08,10.4,45.58,4,43.45-5.52S79.81,10.51,59.43,16.66Z" fill="#28253f"/><polyline points="58.42 126.6 60.77 160.08 69.27 163.72 69.27 133.6" fill="none" stroke="#28253f" stroke-linecap="round" stroke-linejoin="round" stroke-width="2.82"/><path d="M69.18,161.81s-2.53,6.21,4.1,1.35c5.06-3.71,4.09-2.72,4.09-2.72l1.29-16.95s-9.4-13-9.4-6.43S69.18,161.81,69.18,161.81Z" fill="#28253f"/><path d="M54.7,25s16.37,55,8.45,73.94c-10,23.94-4.73,27.66-4.73,27.66s13.83,4.73,27.15,26.93l.4.66a53.25,53.25,0,0,0,45.49,25.18h4.48c8,0,14.92-2.91,5.46-10.91s-30.21-32.4-36-46.23-1.46-30.93,2.55-50.59,7.91-32.21,7.91-32.21Z" fill="none" stroke="#28253f" stroke-linecap="round" stroke-linejoin="round" stroke-width="2.82"/><path d="M83.35,151.8s5.94,11,11.76,20.36a8.76,8.76,0,0,0,4.56,3.7c7.34,2.61,27.14,8.32,44.78,1.72,0,0-26.08,5.87-41.09-6.08S83.35,151.8,83.35,151.8Z" fill="#28253f"/><path d="M78.66,71.28s0-.49-.08-1.36c-.35-4.93-1.71-22-4.7-30.85L85.3,42.34" fill="#28253f"/></svg>