<svg id="Layer_1" data-name="Layer 1" xmlns="http://www.w3.org/2000/svg" viewBox="0 0 200 200"><title>3D Boots and Shoes Icons - Scene 11</title><path d="M46.77,90.42s-7.7,4.9-.42,10.32,15.53,11.89,21.47,12.92,10.06-2.08,13.16,4.89,2,9.55,7.7,16,20.43,8.52,20.43,8.52l1.93-2.33h3l2.07,2.33a29.19,29.19,0,0,0,14.71-1.81v-3.35h2.58l2.06,2.83s18.7-5.16,19.67-20.13-48-14.13-48-14.13Z" fill="#0D0C22"/><path d="M53,59.32A16.36,16.36,0,0,0,46.77,70.2c-1,7.31,0,20.22,0,20.22S58.31,105.3,75.94,106l4.85,1.68s5.24,15.23,19.1,19.87,27.13,6.64,40.73,1.63a21.59,21.59,0,0,0,14.48-17.67s2.78-.73-9.86-4.86-31.71-24.61-31.71-24.61L100.45,69.15s-4.34-2.23-7-.57S83,73.8,83,73.8Z" fill="#f5f5f5"/><path d="M129.49,96.86s5,3.34,0,6.11-19.7,2.21-39.9-14.17S59,75.7,53,59.32c0,0-9.83,7.1-6.55,27,0,0,7.64,9.17,17.47,14.28s15.83,2.71,22.38,14,23.48,15.9,39.86,16.6,28.93-8.24,28.93-16.6-3.82-2.91-14.19-8.91-40.46-36.58-40.46-36.58-6-2.73-9.77,1.09-11.81,2.51-14.36,9.43" fill="none" stroke="#28253f" stroke-linecap="round" stroke-linejoin="round" stroke-width="2.82"/><path d="M51.92,58.78s3.27-5.1,13.46.54S86.61,72.57,86.61,72.57a10.67,10.67,0,0,0-6.55,2.59,29.44,29.44,0,0,1-5,3.81S62.36,74.56,58.28,68.39,51.92,58.78,51.92,58.78Z" fill="#28253f"/><path d="M154.08,110.28s-.06,3.6-6.21,5.12a1.55,1.55,0,0,0-1,2.27c1.34,2.28,2.71,6.26-1.31,9.37-6,4.62-17.24,5-22.39,4.24s-21.88-2.14-28.72-8.41S83.56,108.1,77.75,105.94s-23.1-7-31.29-19.59c0,0-.9.11-1.48,2A7.5,7.5,0,0,0,47.34,96c4.29,3.77,12.95,10.57,21.93,12.92h8.85s4.1,2.5,7.1,9.33,3.82,9.87,6.82,13a40.45,40.45,0,0,0,18,6.11l1.37-3.82h2.73l1.36,3.82s.46,1.64,14.65-.91l.73-2.73,2.55-.54,1.45,2.73s12.56-2.91,18-9.83,4.09-16.15,2.18-17S154.08,110.28,154.08,110.28Z" fill="#28253f"/><path d="M75.94,106s0-14.35,10.71-19l6.75,5.19s-9.47,5.18-8.73,19.32Z" fill="#28253f"/><path d="M88.68,118.47s4.5-15.8,12.92-21.31l9.5,5.94s-6,3.8-11.34,13.07c-4.68,8.11-.36,14-.36,14Z" fill="#28253f"/><path d="M137.59,103.49S119.25,106.09,116,129c0,0-3.17,3.2-10.87-1,0,0,3.42-17,16.24-24.58,0,0,10.94,2.45,11-4.21Z" fill="#28253f"/></svg>