<svg id="Layer_1" data-name="Layer 1" xmlns="http://www.w3.org/2000/svg" viewBox="0 0 200 200"><title>3D Boots and Shoes Icons - Scene 14</title><path d="M44.07,77.93s-3,8.06,1.44,15.22,16.91,17,40.33,27.42,56.1,16.26,65.48,4.84-105.08-49-105.08-49Z" fill="#0D0C22"/><path d="M48.09,73.67s-5.21,5.15-3.77,10.19S71.11,105.6,71.11,105.6s28,17.4,51.64,21.12,27.29.24,32.45-8.47-3.33-19.23-10-23.53S123,83.86,123,83.86s-15.23,7.72-19.15,19.74L55.58,73.67Z" fill="#f5f5f5"/><path d="M98.42,110.61S109.88,87.68,123,83.86c0,0,17.47,4.91,27.84,15.83s4.37,18.56,4.37,18.56S125.72,124.26,98.42,110.61Z" fill="none" stroke="#28253f" stroke-linecap="round" stroke-linejoin="round" stroke-width="2.82"/><path d="M98.42,110.61S87,103.51,63.48,91.5,41.92,71.57,55.56,68.84s24.09,6.19,39.58,15l15.5,8.82S100.6,103.51,98.42,110.61Z" fill="#28253f"/><path d="M155.2,118.25l-1.92,3.06A14.1,14.1,0,0,1,142.13,128c-8.57.5-23.94-.29-43.71-8.41A186.91,186.91,0,0,1,47.1,88s-6.25-5.13,0-12.84h7.65" fill="none" stroke="#28253f" stroke-linecap="round" stroke-linejoin="round" stroke-width="2.82"/></svg>