<svg id="Layer_1" data-name="Layer 1" xmlns="http://www.w3.org/2000/svg" viewBox="0 0 200 200"><title>3D Boots and Shoes Icons - Scene 6</title><path d="M51,121.79s-18.65,8.78-7.74,14.45,59.35,34.07,84.13,29.94,31.47-14.53,31.47-14.53Z" fill="#0D0C22"/><path d="M60.9,42.57A56.23,56.23,0,0,1,58,61c-3.3,10.11-14.33,27.2-9.52,40.49,0,0,20.67,25.42,49.13,34.46s60.21,1.84,60.21,1.84,6.37-14.71-10.51-23.25S98.46,87.51,101.25,69.89s0-20.64,0-20.64Z" fill="#f5f5f5"/><path d="M63.07,34.37c-6,1.8-7.54,14.35,10.38,18.46s33.15,2.8,31.61-4S77.9,29.93,63.07,34.37Z" fill="#28253f"/><path d="M61,41.2a101.36,101.36,0,0,1-4.12,24.11C53,77.78,41.56,95.13,50.3,103.92S88,130.73,116.36,137.83s41.49,0,41.49,0,6.55-14.2-13.65-25.11S108.74,92,103.54,80.78s-.11-31.08-.11-31.08Z" fill="none" stroke="#28253f" stroke-linecap="round" stroke-linejoin="round" stroke-width="2.82"/><path d="M160.16,133.88l-1.3,17.77s-13.76,13.12-40.33,8c-3.25-.62-6.26-1.3-9.11-2l-3-5.56v4.77c-2.57-.68-4.94-1.41-7.14-2.12l-3-5.53v4.49c-2.23-.76-4.23-1.55-6-2.29l-3.21-5.84V150a61.75,61.75,0,0,1-8.07-4.2v-6.55L71.59,141a58.29,58.29,0,0,1-6.54-1.84l-3.13-5.69V138a46.64,46.64,0,0,1-6.57-3.3l-2.68-4.85v3.1A29,29,0,0,1,47.08,128c-1.92-22.93,0-31.31,0-31.31C49.9,107.45,60.37,112,74.3,120.59S115.82,141,140.11,141C159.82,141,160.16,133.88,160.16,133.88Z" fill="#28253f"/><path d="M131.47,105.54s-9.11,4.17-12.93,10.18" fill="none" stroke="#28253f" stroke-linecap="round" stroke-linejoin="round" stroke-width="2.82"/><line x1="125" y1="101.53" x2="105.17" y2="99.89" fill="none" stroke="#28253f" stroke-linecap="round" stroke-linejoin="round" stroke-width="2.82"/><line x1="115.09" y1="109.71" x2="115.09" y2="94.37" fill="none" stroke="#28253f" stroke-linecap="round" stroke-linejoin="round" stroke-width="2.82"/><line x1="109.52" y1="89.25" x2="91.03" y2="81.88" fill="none" stroke="#28253f" stroke-linecap="round" stroke-linejoin="round" stroke-width="2.82"/><line x1="97.64" y1="94.17" x2="102.13" y2="79.5" fill="none" stroke="#28253f" stroke-linecap="round" stroke-linejoin="round" stroke-width="2.82"/><path d="M59,59.49S61.22,63.83,75.68,68c15.35,4.37,25.53,0,25.53,0" fill="none" stroke="#28253f" stroke-linecap="round" stroke-linejoin="round" stroke-width="2.82"/></svg>