<svg id="Layer_1" data-name="Layer 1" xmlns="http://www.w3.org/2000/svg" viewBox="0 0 200 200"><title>3D Boots and Shoes Icons - Scene 8</title><path d="M56.47,122.54s-4.39,4.09-1.74,6.54a13,13,0,0,0,12.33,2.25c4.24-1.6,12.37,1.35,18.5,4.52s6.55,11.43,24.62,13.5,32.09-1.3,36.23-12.65c3.18-8.75-47.5-9-57.95-9s-12.23-6.45-21.4-6.2S56.47,122.54,56.47,122.54Z" fill="#0D0C22"/><path d="M62.05,77.9s-7.11-1-7.29,2.55,1.84,44.76,1.84,44.76l7.1,2.46L69,93.35s9.21,10.05,9.72,10.71,6.47,9.55,8.28,15.55,3.23,17.41,14.94,21.51,30.62,3.65,37.55,0,9.49-9.82,3.83-12A92.26,92.26,0,0,1,132.65,124l-4.82-6S109.4,104.46,98.09,90s-11-28-11-28L54.42,56.91a50.79,50.79,0,0,0-.09,11.25s8.45,7.94,25.75,7.92c0,0,8.76,17.24,20,30.11s-13-3.55-13-3.55Z" fill="#f5f5f5"/><path d="M56.57,50.81c-4.57,1.36-5.72,10.86,7.86,14s25.11,2.11,23.95-3S67.8,47.45,56.57,50.81Z" fill="#28253f"/><path d="M131.48,120.59S110.65,106.65,98.09,90s-11-28-11-28L56.87,54.24h-1.5a21.46,21.46,0,0,0-1,13.92s4.73,6,25.75,7.92c0,0,4.09,10.64,16.92,25.11s15.83,16.92,15.83,16.92-10.4,5.31-12,16.93l-.74,5.35" fill="none" stroke="#28253f" stroke-linecap="round" stroke-linejoin="round" stroke-width="2.82"/><path d="M64.79,78.26c-7.37-1.36-13.92.55-7.37,5.19s21,17.74,26.75,28.93,3.82,25.39,20.2,29.48,35.76,2.46,39.85-4.64-3-7.93-10.1-12.28-6-5.22-6-5.22" fill="none" stroke="#28253f" stroke-linecap="round" stroke-linejoin="round" stroke-width="2.82"/><polyline points="54.42 80.45 56.6 125.21 63.7 127.67 63.15 88" fill="none" stroke="#28253f" stroke-linecap="round" stroke-linejoin="round" stroke-width="2.82"/><path d="M110.18,143.05s1.37-14.2,11.23-20.48c8-5.09,11.13-2.94,11.24,1.44" fill="none" stroke="#28253f" stroke-linecap="round" stroke-linejoin="round" stroke-width="2.82"/><path d="M110.77,139.69s4.15,1.52,17.8.7,13.83-6.84,9.65-9.06-11.92-6.64-13.24-10.7C125,120.63,114.6,124.84,110.77,139.69Z" fill="#28253f"/><path d="M100.71,135.85s-4-1.18-9.63-16.24-16-28.7-26-34.53-7-8.48-3.27-8.55a25.41,25.41,0,0,1,19.65,9.1c7.46,8.55,17.29,19.29,23.39,24.25l8,8.23S100.69,124.75,100.71,135.85Z" fill="#28253f"/><path d="M63.18,90.54v38.4s1.52,1.28,6.61-3.82L71,95.31l-6.33-6S62.94,87.63,63.18,90.54Z" fill="#28253f"/></svg>