<svg id="Layer_1" data-name="Layer 1" xmlns="http://www.w3.org/2000/svg" viewBox="0 0 200 200"><title>3D Boots and Shoes Icons - Scene 13</title><path d="M66.5,136.47s-9.8,4.88-3.41,8.46,10.06,4.38,15.48,1.94,9.72,3.35,13.36,7.58c5.22,6.08,30.57,15.35,44.73,2.21l-37.87-5.83-3.59-5.9A17.55,17.55,0,0,1,86.31,143c-4.06-2.27-8.13-10.94-15.29-8.86S66.5,136.47,66.5,136.47Z" fill="#0D0C22"/><path d="M65.5,44.89s2.36,17.21,0,25.76S58.38,85.1,61.38,94.42l2.75,45,8.5,3.64,8.75-27.84a128.32,128.32,0,0,1,7.82,21.27c3.31,12.18,19.31,18,19.31,18s22.83,4.39,27.54-1.87,6.28-7.07-4.83-16.09-16-20.17-15.11-42.07.11-40.25.11-40.25Z" fill="#f5f5f5"/><path d="M70,37.18c-9.61,1.77-8.49,16.35,11.74,21s37.4,3.25,35.66-4.53S87.16,34,70,37.18Z" fill="#28253f"/><path d="M65.38,43.66s1.81,17,0,27.87-10.72,19.65.82,28.39,16.46,12,21.91,33.3,38.77,24.56,49.69,18.56c0,0,6.55-6-6.56-15.29s-13.93-23-14.88-37.43-.12-44.89-.12-44.89Z" fill="none" stroke="#28253f" stroke-linecap="round" stroke-linejoin="round" stroke-width="2.82"/><path d="M88.09,133.22s-.18,6.91,5.28,17.1c0,0,1.82,5.83,19.66,9.1s27.29-.73,26.38-11.64c0,0-1.21,10.86-25.63,5.61S88.09,133.22,88.09,133.22Z" fill="#28253f"/><polyline points="60.37 93.18 64.13 139.41 72.63 143.04 72.63 104.91" fill="none" stroke="#28253f" stroke-linecap="round" stroke-linejoin="round" stroke-width="2.82"/><path d="M72.54,141.13s-2.81,6.26,4.09,1.36c2.51-1.78,4.09-2.72,4.09-2.72l1.75-22.85s-9.84-16.19-9.84-9.63S72.54,141.13,72.54,141.13Z" fill="#28253f"/><path d="M131.22,136.49s-13.59-1.41-17.44,16.9" fill="none" stroke="#28253f" stroke-linecap="round" stroke-linejoin="round" stroke-width="2.82"/></svg>