<svg id="Layer_1" data-name="Layer 1" xmlns="http://www.w3.org/2000/svg" viewBox="0 0 200 200"><title>3D Boots and Shoes Icons - Scene 2</title><path d="M58.29,117.25s-7.85,4.23,1.75,6.81,12.19-1.31,20.45,3.73,16.52,16.14,36.64,17.3,31.48-9.71,31.48-9.71S137,143.1,114,137.71s-27.83-16.88-27.83-16.88S76,111.41,69.39,114.89,58.29,117.25,58.29,117.25Z" fill="#0D0C22"/><path d="M61.82,55.56S50.22,60.22,50.9,68.78s3.77,9.12,3.77,9.12l-1.16,2.23,5.35,37.26,9.24,2.32L76,93.43a100.1,100.1,0,0,1,4.11,10.73c1.46,4.93,4.07,22.8,21.47,30s38.83,4.34,38.83,4.34,15.3-.54,5.48-10.71S128.23,113,128.23,113s-19.15-7.85-37.44-34.51S61.82,55.56,61.82,55.56Z" fill="#f5f5f5"/><path d="M61.82,55.56S50.9,59.63,50.9,68.78s8.73,13.55,18,17.91S78.75,102,83.66,115.61s19.65,23.48,43.13,23.48,26.75-2.73,15.83-15.29-29.48-17.47-45.31-37.12S71.65,51.74,61.82,55.56Z" fill="none" stroke="#28253f" stroke-miterlimit="10" stroke-width="2.82"/><path d="M52.94,75.68l5.35,41.57,9.81,2.46,4.12-30.88" fill="none" stroke="#28253f" stroke-linecap="round" stroke-linejoin="round" stroke-width="2.82"/><path d="M61.82,55.56S53.69,61,72.22,80.13s19.63,43.13,40.37,46.4,26.25.55,18-12.83c0,0-15.28-8.5-23.39-16.67s-26.18-33-32.46-37.14S65.55,53.61,61.82,55.56Z" fill="#28253f"/><path d="M66.86,119.4s-.56,4.2,8.53-1.8l2.54-19.91s-4.77-10.91-5.71-6.38-3.84,26.26-3.84,26.26Z" fill="#28253f"/></svg>