<svg id="Layer_1" data-name="Layer 1" xmlns="http://www.w3.org/2000/svg" viewBox="0 0 200 200"><title>3D Boots and Shoes Icons - Scene 10</title><path d="M155.56,117.74s6.88,4.61-3,9.25-34.09,9.79-53-.77-35.83-21.2-48-26.16C42.34,96.3,37.92,83.36,44.49,82s60.56,20,60.56,20Z" fill="#0D0C22"/><path d="M47,71.19c4.53-4.38,16.94-4.55,23.2-.81S93.83,85,102.49,88.75,112.56,93,112.56,93s5.58-8.27,14.09-5.83,6.45,9.51,6.45,9.51,16.25.5,20,4.5,5.83,4.28,2.1,11.84-24.68,21.39-60,0S47,85.79,47,85.79,39.56,78.36,47,71.19Z" fill="#f5f5f5"/><path d="M127.54,96a84.75,84.75,0,0,1-15-3,41.31,41.31,0,0,1-4.88-1.81A246,246,0,0,1,73.47,72.22c-10.18-6.55-21.83-5.81-27.64,0s8,18.19,30.91,29.84c5.87,3,11.17,5.87,16.19,8.46,3.3,1.69,6.46,3.24,9.57,4.63,10.77,4.82,21,7.5,33.59,5.84,21.83-2.91,26.2-15.29,16-20.4-4.82-2.4-11.56-3.13-19-4" fill="none" stroke="#28253f" stroke-linecap="round" stroke-linejoin="round" stroke-width="2.82"/><path d="M158.65,107.34s-.54,5.24-1.15,12.15a4.05,4.05,0,0,1-2,3.18c-4.42,2.59-16.83,8.32-36.76,5.74a44.42,44.42,0,0,1-16.38-5.67L47.69,91.34a10.94,10.94,0,0,1-5.19-6.78c-.79-3.06-1.14-7.89,1.32-11.71,0,0-.93,5.89,6.48,11.9S74.51,100.9,74.51,100.9s31.19,18.35,46.29,20S154.12,119.9,158.65,107.34Z" fill="#28253f"/><path d="M91.68,113s2.73-8.21,13.37-11.07,22.39,2.33,22.39,2.33,1.64-10.37-2.46-15.55S112.56,93,112.56,93" fill="none" stroke="#28253f" stroke-linecap="round" stroke-linejoin="round" stroke-width="2.82"/><path d="M102.49,115.15s8.3-10.91,27.4-6.81c0,0,5.19-6.28,2.46-17.74,0,0-2.46-3.39-10.1-3.47" fill="none" stroke="#28253f" stroke-linecap="round" stroke-linejoin="round" stroke-width="2.82"/><path d="M105.84,112.12s3.31,3.45,15.32,5.09,24-.63,28.66-5.09,2.87-7.88-1.64-9.65-15-2.41-15-2.41-.79,5.82-3.25,8.28a34.15,34.15,0,0,0-13.21-.53C108.88,108.88,105.84,112.12,105.84,112.12Z" fill="#28253f"/><path d="M95.06,107.75A216.11,216.11,0,0,1,74.48,97C64.79,91.14,45.41,80,49.64,75s12-4.78,18.15-1.5,11.88,8,25.66,14.6,21.38,11.31,34.3,10.36c0,0,0,2.83-.21,5,0,0-6.93-3-18.94-2.09S95.06,107.75,95.06,107.75Z" fill="#28253f"/></svg>