<svg id="Layer_1" data-name="Layer 1" xmlns="http://www.w3.org/2000/svg" viewBox="0 0 200 200"><title>3D Boots and Shoes Icons - Scene 12</title><path d="M49,120.52s-10.19,4.66-4.13,9.85,30.13,22.22,57,28,50.4,1.06,53.92-12.43c0,0-15.44,13.22-49.12,3.15A196,196,0,0,1,49,120.52Z" fill="#0D0C22"/><path d="M50.35,48.74s.42,21.93.28,28.88-2.31,13-2.93,18.63,1.27,18,1.27,18,49.78,37.51,84.89,36.05,18.8-23.76,18.8-23.76l-43.4-35.46,2.24-27.36Z" fill="#f5f5f5"/><path d="M55.14,40.55c-8.28,2.5-12.12,13.9,14.31,25.8,23.09,10.4,45.73,3,43.59-6.54S75.51,34.4,55.14,40.55Z" fill="#28253f"/><path d="M50.32,47.43s.74,31.69,0,40.42c0,0-7.28,15.29,0,26.21,0,0,29.11,17.1,46.94,25.47s38.58,14.56,50.59,8.37S162,130.07,138,113.33s-28.76-21.48-28.76-21.48l2.51-31.48Z" fill="none" stroke="#28253f" stroke-linecap="round" stroke-linejoin="round" stroke-width="2.82"/><path d="M50.32,87.85s21.59,5.72,18.07,36.53" fill="none" stroke="#28253f" stroke-linecap="round" stroke-linejoin="round" stroke-width="2.82"/><path d="M46,122.06a7.33,7.33,0,0,0,2.81,3.5c7.59,5,38.11,24.2,64.38,29.26,30.25,5.82,47-3.19,43.37-18.93,0,0,1.06,15.17-21.13,14.5s-58.07-21-58.07-21-25-12.13-28.84-18.67l-1.48-6.53S42.83,113.67,46,122.06Z" fill="#28253f"/><path d="M68.78,61.55l-.94,47.15s6.5-12.44,20.63-17.51c13.37-4.79,20.79.66,20.79.66" fill="none" stroke="#28253f" stroke-linecap="round" stroke-linejoin="round" stroke-width="2.82"/></svg>