<svg id="Layer_1" data-name="Layer 1" xmlns="http://www.w3.org/2000/svg" viewBox="0 0 200 200"><title>3D Boots and Shoes Icons - Scene 4</title><path d="M58.25,132.37S46,141.61,54.72,145.1s18.88,8,24.42,3.68a51.47,51.47,0,0,0,31.76,15.79c20.12,2.08,38.44,2.57,37.28-5.93s-77-29-77-29Z" fill="#0D0C22"/><path d="M54.72,45.88v55.25s-3.7,8.94-1.38,18.52,12.39,16.74,12.39,16.74l13.41,4.71,28.37,17.21,19.85,2.31,10-22.81s-12.67-9.48-23.84-20S103.78,107,103.78,107l-.63-54.16Z" fill="#f5f5f5"/><path d="M57.25,35.25c-6.9,2.14-8.52,17.46,12.08,22.65s38.06,3.74,36.23-4.61S74.22,30,57.25,35.25Z" fill="#28253f"/><path d="M103.78,56s-1.46,34.21,0,51c0,0,10.92,13.83,24.75,24s19.65,15.29,19.65,27.67c-3.58,4.17-28.68,1.5-37.61.4a14,14,0,0,1-5.77-2c-6.72-4.21-24.57-15.37-31.59-19.46-8.74-5.1-26.79-9.47-18.49-36.4V40.69Z" fill="none" stroke="#28253f" stroke-linecap="round" stroke-linejoin="round" stroke-width="2.82"/><path d="M53.34,119.65,55,135a5.55,5.55,0,0,0,3.32,4.49l11,4.69a10.81,10.81,0,0,0,7.91.25l4.72-1.69s-6.94-4.28-17.32-10C52.71,126.21,53.34,119.65,53.34,119.65Z" fill="#28253f"/><path d="M135.65,136.39s-16.69,3-16.27,23.61c0,0,22,3.39,28.8-1.36C148.18,158.64,151.12,143.68,135.65,136.39Z" fill="#28253f"/><path d="M71.11,136.39S74,109.54,54.72,101.13" fill="none" stroke="#28253f" stroke-linecap="round" stroke-linejoin="round" stroke-width="2.82"/><polygon points="64.12 52.79 71.27 70.63 78.42 54.73 64.12 52.79" fill="#28253f"/></svg>