<svg id="Layer_1" data-name="Layer 1" xmlns="http://www.w3.org/2000/svg" viewBox="0 0 200 200"><title>3D Boots and Shoes Icons - Scene 7</title><path d="M66.44,120.67s-7.8,7-3.6,10c4.91,3.44,8.65,3.44,15,.86s5.87,1.66,6.9,5.86,8.69,11.95,29.12,11.69,27.46-15.87,27.46-15.87l-54.92-4s-5.27-7.23-13.53-7S66.44,120.67,66.44,120.67Z" fill="#0D0C22"/><path d="M68.21,51.6a13.91,13.91,0,0,0-8.9,9.79c-2.14,7.93,1.56,8.06,1.56,8.06l-1.42,1.16L63,126.36l8.74,2.83L74.78,84.8s3-.2,4.9,3.85,6.76,20.45,6.76,20.45v16.26s.74,5.77,4.17,8.23,15.5,10.53,31.93,8,18.82-8.37,18.82-8.37l-.52-21.79s-16.07-10.77-22.82-16S98.65,81.72,86.44,63.84C76.26,48.93,68.21,51.6,68.21,51.6Z" fill="#f5f5f5"/><path d="M68.78,50.94c-5.46,1.82-12,10.19-9.47,17.47A80.79,80.79,0,0,1,76.06,83.33c8,9.46,8.37,21.93,11.28,28.07s14.92,16,36.76,14.87,16.74-14.87,16.74-14.87-4-2.6-18.93-13.15S99.35,80.42,88.07,65.86,68.78,50.94,68.78,50.94Z" fill="none" stroke="#28253f" stroke-miterlimit="10" stroke-width="2.82"/><path d="M68.78,50.94s-6.19,6.18,0,13.1,13.1,17.1,21.11,32.39,23.29,20,23.29,20,5.87-15.52,16.58-12.67" fill="none" stroke="#28253f" stroke-miterlimit="10" stroke-width="2.82"/><polyline points="59.31 68.41 62.95 126.36 71.69 129.19 71.69 78.59" fill="none" stroke="#28253f" stroke-linecap="round" stroke-linejoin="round" stroke-width="2.82"/><path d="M72.75,130.5l4.4-5.18.73-39.6-4.39-5.26s-1.8-5.5-1.8,14.88V125C71.69,126.42,71.82,131.59,72.75,130.5Z" fill="#28253f"/><path d="M86.44,109.1v16.26A10,10,0,0,0,89.92,133c4.58,3.91,13.77,9.64,28,8.92,21.47-1.1,23.45-8.74,23.45-8.74v-20" fill="none" stroke="#28253f" stroke-miterlimit="10" stroke-width="2.82"/><path d="M66.44,60.13s4.64-1.15,7,2.49S79,71.5,92.62,86.79s27.76,19.28,27.76,19.28-5,5.1-7.2,10.38a46.2,46.2,0,0,1-23.29-20C81.31,81.27,69.57,63.68,66.44,60.13Z" fill="#28253f"/></svg>