<svg id="Layer_1" data-name="Layer 1" xmlns="http://www.w3.org/2000/svg" viewBox="0 0 200 200"><title>3D Boots and Shoes Icons - Scene 3</title><path d="M52.91,89.52s-7.57,7.11,0,11.19,6.64,2,22,16.28c18.59,17.29,61.76,36.84,77.64,9.47L90.92,111.9Z" fill="#0D0C22"/><path d="M59.18,60.15s-9.34,1.93-11.3,8.55S47.1,81.23,51.6,88,70.69,104.8,70.69,104.8l29.38,21.93s17.64,7.84,30.35,6.1,26.53-5.9,23.14-10.34-19.14-20-23.06-24.51-9.81-11.48-9.81-11.48L112,90.89,86.52,74.66S68.47,57.82,59.18,60.15Z" fill="#f5f5f5"/><path d="M152.56,126.46s-4.55,7.82-24.75,7.82S95.6,126.09,85.23,117.9,59.57,97.16,59.57,97.16h0c-8.46.27-12.32-10.92-13.65-21.84h0s4.51,10.37,12.49,16.6,23,20.55,34.9,27.54,27.24,15.2,43.24,11.1Z" fill="#28253f"/><path d="M152.56,126.46s4.53-2.73-5.66-11.56-26.21-28.4-26.21-28.4-17.43,4.29-21.45,25.4c0,0-30.23-16.74-42.6-29.12S61,60.22,61,60.22a16.68,16.68,0,0,0-11.1,5.34,14.6,14.6,0,0,0-2.24,15c1.2,3.06,3,6.76,5.24,9,4.36,4.36,25.66,22.92,45,34.66s34.86,8.54,41.76,7.65S152.56,126.46,152.56,126.46Z" fill="none" stroke="#28253f" stroke-linecap="round" stroke-linejoin="round" stroke-width="2.82"/><path d="M61,60.22s5.82-1.46,18.56,9.1S112,90.89,112,90.89" fill="none" stroke="#28253f" stroke-miterlimit="10" stroke-width="2.82"/><path d="M52.32,75.52s3.23-10.94,12.32-5.11S88.34,88,96.67,93L105,98s-5.39,8.83-5.77,13.93c0,0-17.34-10-25-15.34S51.85,81.41,52.32,75.52Z" fill="#28253f"/><path d="M129.25,96.56s-10,4.78-12.92,15.34l9.1,5.09s2.48-6.18,11.25-12.19" fill="none" stroke="#28253f" stroke-linecap="round" stroke-linejoin="round" stroke-width="2.82"/><path d="M112,130.56s-.84-11.51,6.46-17.45l3.94,2.21s-6.87,7.4-5.21,16.55Z" fill="#28253f"/></svg>